<?xml version="1.0" standalone="no"?><!DOCTYPE svg PUBLIC "-//W3C//DTD SVG 1.1//EN" "http://www.w3.org/Graphics/SVG/1.1/DTD/svg11.dtd"><svg t="1780565626820" class="icon" viewBox="0 0 1026 1024" version="1.1" xmlns="http://www.w3.org/2000/svg" p-id="5237" xmlns:xlink="http://www.w3.org/1999/xlink" width="200.390625" height="200"><path d="M449.536 432.64h202.24s211.968 250.88 72.192 491.52l-347.136-14.336c0.512 0-110.592-265.216 72.704-477.184z" fill="#17E6A1" p-id="5238"></path><path d="M661.504 416.768c-4.096-5.12-10.24-8.192-16.896-8.192h-83.968c2.56-2.048 5.12-4.096 6.656-7.168 0.512-1.024 11.776-19.456 49.152-31.744 16.896 18.432 39.936 28.16 64 28.16 3.072 0 6.144 0 9.216-0.512 31.744-3.584 58.368-23.04 71.68-52.736l17.92-39.936c10.24-22.528 7.68-47.616-6.656-67.072-14.336-19.968-36.864-29.696-60.928-26.624l-42.496 5.632c-5.632 1.024-11.264 2.56-16.896 4.096l8.704-41.472c5.12-24.064-2.56-48.128-20.992-64-17.92-16.384-42.496-20.992-65.024-12.288l-40.448 15.36c-29.696 11.264-51.2 36.864-56.832 68.608-5.632 30.72 4.608 61.44 26.624 82.432-14.336 22.528-19.456 48.64-20.48 72.192-11.264-12.288-27.136-23.04-49.152-30.208 4.096-17.92 2.56-36.864-4.608-54.272-12.288-30.208-37.888-50.688-69.632-55.296l-42.496-6.144c-24.064-3.584-46.592 6.144-60.928 25.6-14.336 19.456-17.408 44.544-7.168 67.072l17.408 40.448c12.8 29.696 39.424 49.664 71.168 53.248 3.584 0.512 6.656 0.512 10.24 0.512 25.088 0 48.64-10.752 65.536-30.208C463.36 365.056 465.92 401.408 465.92 406.016c0 1.024 0 2.048 0.512 3.072H373.248c-6.656 0-13.312 3.072-17.408 8.704-4.096 5.12-96.256 130.56-110.08 316.928-3.584 49.664 0.512 118.272 41.984 163.328 24.576 27.136 58.368 40.96 100.352 40.96H645.12c40.448 0 73.216-13.312 96.768-39.424 31.744-34.816 45.568-92.16 39.936-165.376-13.824-186.88-116.224-312.32-120.32-317.44zM384 320.512c-9.728 12.8-24.576 19.968-40.96 17.92-15.872-2.048-29.184-11.776-35.84-26.624L289.792 271.36c-4.608-10.24 0-18.432 2.56-21.504 2.048-2.56 7.168-8.704 16.384-8.704h3.072l42.496 6.144c15.872 2.048 28.672 12.8 34.816 27.648 6.656 15.36 4.608 32.256-5.12 45.568z m148.48 86.528c0.512 0.512 1.536 1.536 2.56 2.048h-3.072c0-1.024 0.512-1.536 0.512-2.048z m-2.56-29.696c-3.584-20.992-6.144-59.392 12.8-84.992 7.168 2.048 14.336 3.072 22.016 3.072 9.216 0 18.944-1.536 28.16-4.608h0.512c-2.56 13.312-2.56 26.624 1.024 39.424-40.96 14.848-58.88 37.888-64.512 47.104z m144.896-115.2l42.496-5.632c11.264-1.536 17.408 5.632 19.456 8.704 2.048 3.072 6.656 11.264 2.048 21.504l-17.92 39.936c-6.656 14.848-19.968 24.576-35.84 26.624-15.872 1.536-31.232-5.12-40.448-18.432-9.728-13.312-11.264-30.208-5.12-45.056 6.144-14.848 19.456-25.088 35.328-27.648z m-154.112-66.048c3.072-15.872 13.824-29.184 28.672-34.816l40.448-15.36c10.752-4.096 17.92 1.536 20.992 4.096 2.56 2.56 9.216 9.728 6.656 20.48l-9.216 43.008c-3.584 15.872-14.336 28.672-29.696 33.792s-31.232 2.048-43.52-8.704c-11.776-10.24-16.896-26.112-14.336-42.496z m188.416 673.28c-15.36 16.896-36.352 25.088-64.512 25.088H387.584c-29.184 0-51.712-8.704-68.096-26.624-20.48-22.528-31.232-59.904-31.232-107.008H501.76c12.288 0 22.016-10.24 22.016-22.528 0-12.288-9.728-22.528-22.016-22.528H291.84c4.096-36.352 11.264-70.144 19.968-100.352H501.76c12.288 0 22.016-10.24 22.016-22.528 0-12.288-9.728-22.528-22.016-22.528H327.168c21.504-58.368 46.08-99.328 57.344-116.224h249.344c21.504 29.184 92.672 136.704 103.424 284.16 3.072 41.984 1.024 99.328-28.16 131.072z" fill="#333333" p-id="5239"></path></svg>